<?xml version="1.0" standalone="no"?>
<!DOCTYPE svg PUBLIC "-//W3C//DTD SVG 20010904//EN"
 "http://www.w3.org/TR/2001/REC-SVG-20010904/DTD/svg10.dtd">
<svg version="1.0" xmlns="http://www.w3.org/2000/svg"
 width="64.000000pt" height="64.000000pt" viewBox="0 0 64.000000 64.000000"
 preserveAspectRatio="xMidYMid meet">

<g transform="translate(0.000000,64.000000) scale(0.100000,-0.100000)"
fill="#000000" stroke="none">
<path d="M216 604 c-71 -22 -159 -112 -180 -184 -34 -115 -12 -206 73 -291 85
-85 176 -107 291 -73 75 22 162 109 184 184 34 115 12 206 -73 291 -85 84
-180 108 -295 73z m226 -41 c92 -51 146 -155 135 -261 -15 -145 -149 -254
-295 -239 -145 15 -254 149 -239 295 11 102 92 201 191 232 57 17 150 5 208
-27z"/>
<path d="M248 553 c-32 -8 -20 -26 13 -19 17 3 44 6 60 6 16 0 29 5 29 10 0
10 -69 12 -102 3z"/>
<path d="M380 540 c0 -12 28 -25 36 -17 3 3 -4 10 -15 17 -15 7 -21 7 -21 0z"/>
<path d="M180 390 c0 -6 50 -10 130 -10 80 0 130 4 130 10 0 6 -50 10 -130 10
-80 0 -130 -4 -130 -10z"/>
<path d="M180 330 c0 -6 50 -10 130 -10 80 0 130 4 130 10 0 6 -50 10 -130 10
-80 0 -130 -4 -130 -10z"/>
<path d="M180 270 c0 -6 50 -10 130 -10 80 0 130 4 130 10 0 6 -50 10 -130 10
-80 0 -130 -4 -130 -10z"/>
<path d="M135 209 c-4 -6 -5 -13 -2 -16 7 -7 27 6 27 18 0 12 -17 12 -25 -2z"/>
<path d="M177 173 c-10 -9 -9 -23 2 -23 5 0 11 7 15 15 5 15 -5 20 -17 8z"/>
<path d="M221 146 c-8 -9 -11 -19 -7 -23 9 -9 29 13 24 27 -2 8 -8 7 -17 -4z"/>
<path d="M270 119 c0 -11 5 -17 10 -14 6 3 10 13 10 21 0 8 -4 14 -10 14 -5 0
-10 -9 -10 -21z"/>
<path d="M320 126 c0 -8 5 -18 10 -21 6 -3 10 3 10 14 0 12 -4 21 -10 21 -5 0
-10 -6 -10 -14z"/>
</g>
</svg>
